<?xml version="1.0" encoding="UTF-8" standalone="no"?>
<!-- Created with Inkscape (http://www.inkscape.org/) -->

<svg
   width="100"
   height="100"
   viewBox="0 0 26.458333 26.458333"
   version="1.1"
   id="svg1"
   sodipodi:docname="trip_icon_final.svg"
   inkscape:version="1.4 (86a8ad7, 2024-10-11)"
   xmlns:inkscape="http://www.inkscape.org/namespaces/inkscape"
   xmlns:sodipodi="http://sodipodi.sourceforge.net/DTD/sodipodi-0.dtd"
   xmlns="http://www.w3.org/2000/svg"
   xmlns:svg="http://www.w3.org/2000/svg">
  <sodipodi:namedview
     id="namedview1"
     pagecolor="#ffffff"
     bordercolor="#000000"
     borderopacity="0.25"
     inkscape:showpageshadow="2"
     inkscape:pageopacity="0.0"
     inkscape:pagecheckerboard="0"
     inkscape:deskcolor="#d1d1d1"
     inkscape:zoom="8.4994235"
     inkscape:cx="31.825688"
     inkscape:cy="55.180213"
     inkscape:window-width="2560"
     inkscape:window-height="1494"
     inkscape:window-x="-11"
     inkscape:window-y="-11"
     inkscape:window-maximized="1"
     inkscape:current-layer="svg1" />
  <defs
     id="defs1" />
  <g
     id="layer3">
    <g
       id="g118"
       transform="translate(0.08016616,-0.25499059)">
      <path
         d="m 18.739941,13.235368 -0.133325,5.17e-4 -0.26665,5.16e-4 -5.057573,0.01034 v 0.01602 3.789433 h 2.058789 c 0.146126,0 0.282165,-0.117341 0.320911,-0.257865 0.12233,-0.443658 0.487152,-1.316581 1.48208,-1.449007 0.144742,-0.01927 0.382587,-0.01939 0.5271,-5.17e-4 1.010925,0.132025 1.449295,1.011703 1.607654,1.454175 0.04922,0.137524 0.194422,0.253214 0.340547,0.253214 h 2.749186 c 0.128429,2.74e-4 0.217849,-0.12747 0.173633,-0.248047 l -0.701249,-1.904276 c -0.0505,-0.137124 -0.177624,-0.329758 -0.295072,-0.415996 -0.779959,-0.572692 -2.240047,-1.035539 -2.752804,-1.188041 -0.0271,-0.0307 -0.02515,-0.02872 -0.05323,-0.06046 z m -4.612121,0.551904 h 0.282153 c 0.02696,1.65e-4 0.0487,0.02213 0.04858,0.04909 v 0.05633 c 1.21e-4,0.02696 -0.02161,0.04893 -0.04858,0.04909 H 14.12782 c -0.02716,1.21e-4 -0.04921,-0.02193 -0.04909,-0.04909 v -0.05633 c -1.21e-4,-0.02716 0.02193,-0.04921 0.04909,-0.04909 z"
         style="baseline-shift:baseline;display:inline;overflow:visible;vector-effect:none;enable-background:accumulate;stop-color:#000000"
         id="path117" />
      <path
         d="m 6.919991,10.07277 c -0.1461253,0 -0.3743732,0.04709 -0.4774902,0.145211 -0.1763591,0.167817 -0.4485712,0.507928 -0.7637777,1.162203 -0.063419,0.13164 -0.1595455,0.347824 -0.2149739,0.482658 -0.3735011,0.90857 -0.5403746,1.722642 -0.6061646,2.122868 -0.023699,0.144171 -0.043921,0.380175 -0.052193,0.526066 l -0.129191,2.276347 c -0.00808,0.143368 0.1060012,0.264059 0.2495971,0.264066 h 1.6706991 c 0.1461253,0 0.284956,-0.117083 0.3281453,-0.256315 0.1347418,-0.434377 0.5214992,-1.281177 1.5084351,-1.410767 0.1447788,-0.01901 0.3825494,-0.0187 0.5270996,0 0.9995057,0.129277 1.4417562,0.981459 1.6040362,1.414901 0.05121,0.136789 0.19804,0.252181 0.344165,0.252181 h 2.073775 v -3.789433 -0.0155 l -4.8922073,0.01034 v 0.0052 H 7.7897054 v -0.0047 l -2.1673096,0.0047 c -0.073062,1.54e-4 -0.1156595,-0.05349 -0.094568,-0.119889 0.074622,-0.234914 0.2520347,-0.775333 0.4583699,-1.273824 0.026563,-0.06418 0.071026,-0.16801 0.1002523,-0.23151 0.2161779,-0.469696 0.4905298,-0.879905 0.6196004,-1.062985 0.039848,-0.05652 0.1326095,-0.101285 0.2056722,-0.101285 h 0.8779826 0.3002401 4.8922077 0.30024 2.272213 0.42013 0.04289 c -0.0876,-0.07574 -0.238747,-0.20774 -0.238745,-0.20774 -0.115734,-0.123011 -0.277099,-0.192717 -0.445968,-0.192753 z m 4.954736,3.714502 h 0.282154 a 0.04887489,0.04887489 0 0 1 0.04858,0.04909 v 0.05633 a 0.04887489,0.04887489 0 0 1 -0.04858,0.04909 h -0.282154 a 0.04887489,0.04887489 0 0 1 -0.04909,-0.04909 v -0.05633 a 0.04887489,0.04887489 0 0 1 0.04909,-0.04909 z"
         style="baseline-shift:baseline;display:inline;overflow:visible;vector-effect:none;enable-background:accumulate;stop-color:#000000"
         id="path118" />
      <path
         id="rect59"
         style="stroke-width:0.16"
         d="m 8.5008903,8.1314156 c 0.069216,-0.018547 0.2293858,0.073927 0.2479322,0.1431437 0.018547,0.069217 -0.07183,0.1244136 -0.07183,0.1244136 L 8.4290601,8.2558292 c 0,0 0.00261,-0.1058675 0.07183,-0.1244136 z" />
      <circle
         style="fill:none;stroke:#000000;stroke-width:1.01463;stroke-dasharray:none"
         id="use17"
         cx="8.7377901"
         cy="17.312754"
         r="1.0629525" />
      <circle
         style="fill:none;stroke:#000000;stroke-width:1.01463;stroke-dasharray:none"
         id="use18"
         cx="17.453697"
         cy="17.312754"
         r="1.0629525" />
      <path
         id="rect25"
         style="stroke-width:2.04471"
         d="m 4.3274185,16.335501 c 0.054097,-0.02358 0.1509072,-0.004 0.1968072,0.0075 0.01415,0.0036 0.025485,0.01881 0.025485,0.03342 v 0.526448 c 0,0.01461 -0.011332,0.02986 -0.02548,0.03342 -0.045897,0.01153 -0.1427075,0.03111 -0.1968074,0.0075 -0.013318,-0.0058 -0.030434,-0.02281 -0.039702,-0.0341 C 4.17498,16.7724 4.1748274,16.507846 4.2872628,16.370157 c 0.00949,-0.01162 0.026841,-0.02885 0.040156,-0.03466 z"
         transform="matrix(0.65959006,0.08752724,-0.04659667,1.2389746,2.4380317,-4.5124149)" />
      <path
         id="path27"
         style="stroke-width:2.04471"
         d="m 4.3524987,16.391099 c 0.042536,-0.03132 0.1286032,-0.03881 0.1715824,-0.04058 0.014146,-5.83e-4 0.025629,0.01132 0.025629,0.02593 v 0.526448 c 0,0.01461 -0.011782,0.02755 -0.026352,0.02826 -0.046868,0.0023 -0.1438895,0.0028 -0.1876144,-0.02857 -0.011799,-0.0085 -0.02286,-0.03022 -0.027785,-0.04397 -0.033649,-0.09394 -0.051463,-0.293025 0.014492,-0.426527 0.00611,-0.01237 0.011969,-0.02193 0.011969,-0.02192 z"
         transform="matrix(-0.66991464,0.36871941,0.4371875,1.1523095,18.195199,-4.4367951)" />
      <path
         d="m 12.982153,12.889653 h 0.30024 v -2.41639 h -0.30024 z"
         style="stroke-width:1.81259"
         id="path104" />
      <path
         d="m 12.982153,13.247253 0.30024,-5.16e-4 v -0.357084 h -0.30024 z"
         style="stroke-width:1.81259"
         id="path103" />
      <path
         d="m 15.554606,10.473263 c 0.245235,0.209375 0.883701,0.757612 1.366325,1.234549 0.382562,0.378053 0.936318,0.987281 1.419035,1.528589 l 0.26665,-5.16e-4 0.133325,-5.17e-4 c -0.527473,-0.596166 -1.157785,-1.295372 -1.607137,-1.739429 -0.43145,-0.426365 -0.866367,-0.807554 -1.115177,-1.022676 h -0.04289 z"
         style="stroke-width:2.56339"
         id="path110" />
      <path
         d="M 8.0899455,13.257589 V 10.473263 H 7.7897054 v 2.784842 z"
         style="stroke-width:1.81259"
         id="path107" />
      <path
         d="m 8.0899455,13.257589 -0.3002401,5.16e-4 v 0.0047 h 0.3002401 z"
         style="stroke-width:1.81259"
         id="path106" />
      <rect
         style="fill:#000000;stroke:none;stroke-width:0.40474;stroke-dasharray:none"
         id="rect40"
         width="0.3000235"
         height="0.14668603"
         x="12.982236"
         y="9.9263277" />
      <rect
         style="fill:#000000;stroke:none;stroke-width:0.40474;stroke-dasharray:none"
         id="rect41"
         width="0.3000235"
         height="0.14668603"
         x="7.7897878"
         y="9.9263277" />
      <path
         style="fill:none;stroke:#000000;stroke-width:0.113535;stroke-dasharray:none"
         d="M 7.0468172,10.023075 7.105863,9.9206175 A 0.45639602,0.45639602 150.05652 0 1 7.5025556,9.6921084 l 6.2295334,0.01722 A 0.46124482,0.46124482 29.998207 0 1 14.12961,9.938821 l 0.03381,0.058187"
         id="path42"
         transform="matrix(1.1485763,0,0,0.98245635,-1.0436289,0.35668467)" />
      <path
         id="path43"
         style="stroke-width:0.164562"
         d="M 8.6196808,9.6840733 C 8.4544711,9.8060136 7.7625831,9.7983676 7.5781852,9.6919054 7.3937874,9.585443 7.1697415,8.9538001 7.2488966,8.7038046 7.3280519,8.453809 7.7604003,8.0852924 8.0868806,8.0852924 c 0.3264805,0 0.7784711,0.3493726 0.8471913,0.6058395 0.06872,0.2564668 -0.1491816,0.8710009 -0.3143911,0.9929414 z" />
      <path
         d="M 9.235612,8.0853224 A 0.24726011,0.20951008 0 0 0 8.9885986,8.2946119 v 1.26969 A 0.24726011,0.20951008 0 0 0 9.235612,9.7735914 h 3.576526 A 0.24726011,0.20951008 0 0 0 13.059151,9.5643019 V 8.9400506 H 8.9891154 V 8.890958 H 13.059151 V 8.2946119 A 0.24726011,0.20951008 0 0 0 12.812138,8.0853224 Z"
         style="stroke-width:0.160337"
         id="path60" />
      <path
         id="rect47"
         style="stroke-width:0.16;stroke-dasharray:none"
         d="m 13.731443,8.2932159 h 0.431335 a 0.31430525,0.31430525 40.090797 0 1 0.309701,0.260708 l 0.134125,0.7750125 a 0.22272723,0.22272723 130.0908 0 1 -0.219465,0.260708 H 13.546842 A 0.22957761,0.22957761 49.05199 0 1 13.319557,9.3277032 l 0.110005,-0.7725461 a 0.30492669,0.30492669 139.05199 0 1 0.301881,-0.2619412 z"
         transform="translate(-0.20081967,0.18399589)" />
      <rect
         style="fill:#000000;stroke-width:0.250729;stroke-dasharray:none"
         id="rect1"
         width="0.26501706"
         height="0.36636245"
         x="13.628204"
         y="8.2184105"
         ry="0.057877604" />
      <path
         id="rect2"
         style="stroke-width:0.156597"
         d="m 13.059151,8.7314202 c 0,0 0.08109,-0.031588 0.103378,0 0.02229,0.031588 0.01795,0.3467123 0,0.3663625 -0.01794,0.01965 -0.103378,0 -0.103378,0 z" />
      <path
         id="rect5"
         style="stroke-width:0.100367"
         d="m 4.4439707,11.690074 0.5602468,0.150117 a 0.26458307,0.26458307 59.999973 0 1 0.1870887,0.324047 l -0.561661,2.096147 A 0.26458359,0.26458359 149.99997 0 1 4.3055981,14.447474 L 3.7453513,14.297357 A 0.26458307,0.26458307 59.999973 0 1 3.5582626,13.97331 l 0.561661,-2.096147 a 0.26458359,0.26458359 149.99997 0 1 0.3240471,-0.187089 z"
         transform="translate(0.06614583)" />
    </g>
  </g>
</svg>
